<svg width="682" height="682" xmlns="http://www.w3.org/2000/svg">
 <g>
  <title>background</title>
  <rect x="-1" y="-1" width="684" height="684" id="canvas_background" fill="none"/>
 </g>

 <g>
  <title>Layer 1</title>
  <path d="m26,0l44.26563,461.5l186.48046,50.5l183.84375,-50.5l44.26563,-461.5l-458.85547,0zm0,0" fill="#007fff" id="svg_1"/>
  <path stroke="null" d="m339.7461,0l0,681l253.15507,-67.16895l60.95431,-613.83105l-314.10938,0zm0,0" fill="#005fbf" id="svg_2"/>
  <path stroke="null" d="m73.00002,37l51.40438,532.70802l216.55431,58.29199l213.49236,-58.29199l51.40438,-532.70802l-532.85544,0zm0,0" fill="#007fff" id="svg_7"/>
  <path stroke="null" d="m341.89064,0l0,680.99993l-255.39662,-67.16894l-61.49403,-613.831l316.89063,0l0.00001,0zm0,0" fill="#005fbf" id="svg_8"/>
  <g stroke="null" id="svg_5" fill="#008cdb" clip-rule="evenodd" fill-rule="evenodd">
   <path stroke="null" fill="#ffffff" id="svg_3" d="m246.2867,460.83164c-16.55498,-16.99947 -33.14876,-34.49781 -49.19948,-51.42701c-16.03333,-16.90953 -32.61239,-34.38679 -49.11922,-51.33708l-3.10849,-3.19697l2.9627,-3.34031c5.18706,-5.84027 10.65099,-11.52456 15.93837,-16.99806c5.22184,-5.42572 10.61755,-11.03553 15.68156,-16.72966l2.90786,-3.28691l3.2369,2.90749c7.4997,6.74807 14.42425,14.18613 21.12008,21.38108a748.10413,785.97077 0 0 0 8.5965,9.13843l0,-182.6772c0,-36.5776 6.96468,-61.28213 21.91459,-77.80521c14.70246,-16.23079 37.33799,-24.65253 71.22776,-26.52294c11.25289,-0.61551 21.96541,-0.93731 31.83126,-0.93731c40.07063,0 70.01727,5.20369 89.00661,15.46633c15.99856,8.63675 27.17655,20.94264 34.176,37.61047c6.79347,16.17599 9.49267,36.21363 8.24873,61.25543l-0.22337,4.41955l-78.2446,0l0.43069,-5.07722c1.73749,-20.5056 -1.1289,-35.52365 -8.51758,-44.64662c-5.11216,-6.32087 -12.29352,-9.75393 -21.95873,-10.4931c-3.70772,-0.28386 -7.77791,-0.41596 -12.44332,-0.41596c-4.26013,0 -8.57911,0.11102 -12.7523,0.21501c-3.62746,0.1068 -7.37531,0.18971 -11.01481,0.21079c-28.29742,0.16301 -41.71315,12.58975 -43.5095,40.28609c-1.35094,20.73888 -0.92292,41.8656 -0.46681,64.23739c0.23407,11.51473 0.47216,23.41309 0.47216,35.62904l0,74.74033c0,1.46991 -0.12573,3.74081 -0.28223,6.63284c-0.12038,2.13741 -0.29828,5.35265 -0.39592,8.37537c0.24344,-0.27403 0.49088,-0.55367 0.75037,-0.83754c0.66878,-0.77008 1.0005,-1.14248 1.23591,-1.38559c3.20212,-3.35577 6.3922,-6.6216 9.47795,-9.78204c6.14743,-6.28996 11.94709,-12.23563 17.57287,-18.62536l3.02556,-3.45554l3.27167,3.21243c5.56024,5.4468 10.95997,11.18308 16.18715,16.72966c5.15629,5.48896 10.49851,11.16201 15.92365,16.47671l3.32919,3.26583l-3.18072,3.42463c-16.1818,17.38311 -32.83978,34.82383 -48.95203,51.68418c-16.09085,16.8463 -32.7301,34.2547 -48.87178,51.60127l-3.10581,3.34593l-3.17938,-3.26864z"/>
   <path stroke="null" fill="#ffffff" id="svg_4" d="m347.21632,594.00001c-29.01168,0 -52.83229,-0.46936 -73.31301,-6.39535c-22.40948,-6.48248 -39.09689,-18.54104 -49.61145,-35.8567c-10.90513,-17.97191 -15.42207,-42.10309 -13.42643,-71.7429l0.29293,-4.34086l78.07473,0l-0.32904,4.98306c-2.35946,35.92837 6.4671,52.97421 28.60506,55.24511c2.60958,0.26419 5.74348,0.4005 9.55821,0.4005c3.45893,0 7.1827,-0.11664 10.78207,-0.21079c3.74249,-0.10539 7.60403,-0.22063 11.34117,-0.22063c21.45848,0 34.55186,-2.22875 42.28028,-14.05966c7.06633,-10.82474 7.61874,-26.60725 7.61874,-47.70166l0,-167.79124c-6.56876,6.942 -13.63509,14.52761 -20.5048,21.89119c-2.71391,2.90749 -5.381,5.77844 -7.9411,8.50746l-2.8811,3.08174l-3.14594,-2.76696c-6.60353,-5.78828 -12.60116,-12.26654 -18.39948,-18.51575c-4.4621,-4.80319 -9.06732,-9.78063 -13.84375,-14.30558l-3.3867,-3.21384l3.14862,-3.471c23.60259,-26.00721 48.27389,-51.67996 72.13997,-76.50534c8.45338,-8.81241 17.19434,-17.89322 25.76007,-26.87566l3.10849,-3.25459l3.13524,3.22367c16.47473,16.90391 32.9829,34.32356 48.95738,51.16985c15.94907,16.81819 32.44119,34.20692 48.86643,51.09397l3.0376,3.10704l-2.82493,3.32345a401.19317,421.50028 0 0 1 -32.47596,34.12822l-3.14193,2.93981l-2.96805,-3.13795c-3.0483,-3.22929 -6.2143,-6.64408 -9.27732,-9.94083c-6.34806,-6.83661 -12.85529,-13.86854 -19.18998,-20.1585l0,155.52892c0,2.59693 0.00936,5.18261 0.01471,7.7697c0.06554,26.21097 0.13108,50.95766 -6.17418,70.54703c-6.68111,20.76417 -20.68403,35.68807 -41.60882,44.37962c-20.35232,8.43439 -46.86276,9.14545 -72.27774,9.14545z"/>
  </g>
 </g>
</svg>