<svg width="682" height="682" xmlns="http://www.w3.org/2000/svg" preserveAspectRatio="xMinYMin meet">
 <defs>
  <linearGradient x1="15.791%" y1="14.737%" x2="91.009%" y2="85.228%" id="a">
   <stop offset="0%"/>
   <stop stop-color="#FFF" offset="100%"/>
  </linearGradient>
  <linearGradient x1="82.136%" y1="85.237%" x2="-3.113%" y2="14.79%" id="b">
   <stop offset="0%"/>
   <stop stop-color="#FFF" offset="100%"/>
  </linearGradient>
 </defs>
 <g>
  <title>background</title>
  <rect x="-1" y="-1" width="684" height="684" id="canvas_background" fill="none"/>
 </g>
 <g>
  <title>Layer 1</title>
  <path stroke="null" d="m339.7461,0l0,681l253.15507,-67.16894l60.9543,-613.83106l-314.10937,0z" fill="#dddddd" id="svg_3"/>
  <path stroke="null" d="m73.00002,37l51.40439,532.70802l216.55431,58.29199l213.49236,-58.29199l51.40438,-532.70802l-532.85544,0zm0,0" fill="#f2f2f2" id="svg_7"/>
  <path stroke="null" d="m339.89064,0l0,680.99993l-255.39662,-67.16894l-61.49403,-613.83099l316.89063,0l0.00002,0zm0,0" fill="#dddddd" id="svg_8"/>
  <path stroke="null" d="m344.10538,422.28829c103.7259,127.17358 205.23579,-35.4962 205.08561,-133.32076c-0.17398,-115.65667 -130.51585,-180.29764 -205.16986,-180.29764c-119.82588,-0.00164 -233.93957,89.06499 -233.93957,210.92814c0,135.45218 130.80888,210.48011 233.93957,210.48011c-23.33773,-3.02253 -101.11247,-18.01 -102.15638,-179.12321c-0.70509,-108.96593 39.52195,-152.50189 101.98789,-133.35041c1.39919,0.46615 68.90152,24.41578 68.90152,102.65073c0,77.90387 -68.64879,102.03139 -68.64879,102.03139l0,0.00165z" fill="url(#a)" id="svg_10"/>
  <path stroke="null" d="m344.77219,217.78672c-66.11543,-21.26679 -147.1079,29.58786 -147.1079,131.44553c0,166.31754 132.06303,181.41318 148.0725,181.41318c115.58894,0 225.66767,-89.15267 225.66767,-211.12963c0,-135.58052 -126.18359,-210.67954 -225.66767,-210.67954c27.55457,-3.56122 148.51415,27.83033 148.51415,182.11388c0,100.61455 -90.31865,155.38819 -149.06358,131.98631c-1.34972,-0.46658 -66.467,-24.43892 -66.467,-102.74798c0,-77.97932 66.05183,-102.40175 66.05183,-102.40175l0,0z" fill="url(#b)" id="svg_11"/>
 </g>
</svg>