<svg width="161.00000000000003" height="160.00000000000003" xmlns="http://www.w3.org/2000/svg">
 <g id="Layer_1">
  <title>Layer 1</title>
  <g id="svg_1" stroke="null">
   <path id="svg_2" d="m119.04203,119.60177l19.43541,0l0,-61.79144l-21.89694,-28.99354l-13.743,18.19749l16.20453,21.45687l0,51.12982l0,0.00081l0,-0.00001zm19.48678,12.90068l-67.79277,0l-16.20515,-21.45606l6.87211,-9.09874l13.38401,17.72214l27.53737,0l-27.12702,-35.98765l6.92287,-9.16676l27.12702,35.92044l0,-36.46461l-13.33264,-17.65412l6.82013,-9.03153l-33.6909,-44.81511l-67.69064,0l19.38404,25.66694l0,0.06802l40.20403,0l14.20473,18.80887l-20.76861,27.50029l-14.20473,-18.80887l0,-14.5988l-19.43541,0l0,25.25962l33.64014,44.54384l-13.69224,18.12946l21.89694,28.99435l95.33075,0l-19.38404,-25.53171l0.00001,-0.00001z" fill="#e44f26" stroke="null"/>
  </g>
 </g>

</svg>