<svg width="300" height="241.328" xmlns="http://www.w3.org/2000/svg">
 <defs>
  <linearGradient y2="0.67101" y1="0.53577" x2="1.12034" x1="0.02875" id="a">
   <stop stop-color="#89C442" offset="0"/>
   <stop stop-color="#74B844" offset="1"/>
  </linearGradient>
  <linearGradient y2="0.56589" y1="0.43221" x2="1.15052" x1="-0.06839" id="b">
   <stop stop-color="#74B844" offset="0"/>
   <stop stop-color="#4A9634" offset="1"/>
  </linearGradient>
  <linearGradient y2="-13.68205" y1="-13.92474" x2="-7.46026" x1="-6.34237" id="c">
   <stop stop-color="#C1EA71" offset="0"/>
   <stop stop-color="#ACDA55" offset="1"/>
  </linearGradient>
  <linearGradient y2="-15.23741" y1="-15.47255" x2="-11.97418" x1="-10.42905" id="d">
   <stop stop-color="#ACDA55" offset="0"/>
   <stop stop-color="#89C442" offset="1"/>
  </linearGradient>
 </defs>
 <g>
  <title>Layer 1</title>
  <g id="svg_7">
   <path id="svg_2" d="m63.64999,92.36787c2.234,2.608 46.097,17.218 61.347,34.97c15.25,17.754 21.907,33.598 19.754,48.832c-2.15,15.234 -11.47,14.982 -15.54,20.53c-4.07,5.547 -9.69,12.388 -20.49,11.66c-14.14,-0.948 -28.72,-8.014 -39.25,-32.54c-10.53,-24.527 -9.72,-47.567 -8.88,-60.35c0.84,-12.78 3.04,-23.102 3.04,-23.102l0.019,0z" fill="url(#a)"/>
   <path id="svg_3" d="m61.01601,100.57487l65.69,97.927l-3.028,3.38" fill="url(#b)"/>
   <path id="svg_4" clip-rule="evenodd" d="m-190.74601,236.68587l0.618,-4.337c17.52,-9.335 39.344,-12.934 57.105,-21.945c5.328,2.4 7.697,-1.06 13.38,-0.74c2.062,1.86 -2.594,4.35 2.974,3.97c12.65,1.68 24.97,-0.68 37.41,-1.74c13.12,-1.12 26.15,0.13 39.02,-0.63c4.11,-0.24 10.44,-5.93 15.48,-3.1c2.28,4.13 -7.44,4.49 -4.83,9.05c25.76,6.06 90.19,31.68 101.21,3.81c0.15,1.7 -1.93,5.06 1.11,4.59c21.72,-9.72 58.63,-30.71 65.13,-36.21c7.14,-6.04 16.66,-5.85 26,-8c16.82,-3.87 34.77,-7.81 49.33,-16.29c9,6.25 27.84,9.36 37.91,7.18c10.51,-2.28 26.82,-19.73 35.55,-25.9c3.43,-2.42 8.45,-7.13 12.14,-4.46c-2.48,1.7 0.44,6.68 -2.6,5.82c-1.59,-3.04 -4.76,0.47 -7.07,-0.12c-8.79,7.21 -17.92,13.96 -26.88,20.94c-4.18,2.57 4.03,5.23 -0.87,6.07c-23.14,4.6 -58.38,-6.92 -72.968,9.07c-23.115,7.91 -44.98,9.92 -67.76,22.2c-13.09,7.06 -29.108,19.9 -42.734,26.65c-2.31,1.15 -5.693,1.55 -8.423,3.23c-3.32,2.04 -4.136,4.6 -6.937,5.204c-6.98,1.503 -21.4,-2.14 -30.48,-3.46c-30.28,-4.4 -62.61,-16.746 -91.184,-18.31c-11.3,-0.62 -24.64,1.17 -37.412,1.744c-27.15,1.226 -44.13,1.87 -65.9,9.19c-8.9,2.997 -22.59,10.93 -28.364,6.58l0.045,-0.056z" fill-rule="evenodd" fill="#3c3c3b"/>
   <path id="svg_5" d="m228.79199,-0.02713c-3.05,4.944 -72.6,40.807 -93.475,74.472c-20.873,33.665 -26.828,60.172 -19.26,85.09c7.566,24.914 22.03,23.792 30.275,32.008c8.246,8.22 19.432,18.193 37.3,14.166c23.395,-5.275 45.94,-20.89 57.155,-64.65c11.214,-43.762 3.86,-82.083 -0.88,-103.242c-4.737,-21.157 -11.113,-37.844 -11.113,-37.844l-0.002,0z" fill="url(#c)"/>
   <path id="svg_6" d="m227.60901,7.36287l-84.338,180.893l4.95,4.97" fill="url(#d)"/>
  </g>
 </g>
</svg>