<svg width="256" height="256" xmlns="http://www.w3.org/2000/svg" preserveAspectRatio="xMinYMin meet">

 <g>
  <title>Layer 1</title>
  <rect fill="#ffffff" id="svg_2" height="142.44305" width="244.59918" y="58.32702" x="6.41982"/>
  <path id="svg_1" d="m238.371,206.946l-219.976,0c-9.964,0 -18.395,-8.43 -18.395,-18.395l0,-121.102c0,-9.964 8.431,-18.395 18.395,-18.395l219.21,0c9.964,0 18.395,8.431 18.395,18.395l0,121.102c0,9.964 -7.665,18.395 -17.629,18.395zm-219.976,-145.629c-3.066,0 -6.132,3.066 -6.132,6.132l0,121.102c0,3.832 3.066,6.132 6.132,6.132l219.21,0c3.832,0 6.132,-3.066 6.132,-6.132l0,-121.102c0,-3.832 -3.066,-6.132 -6.132,-6.132l-219.21,0zm18.395,108.839l0,-84.312l24.527,0l24.527,30.66l24.527,-30.66l24.527,0l0,84.312l-24.527,0l0,-48.288l-24.527,30.66l-24.527,-30.66l0,48.288l-24.527,0zm154.06,0l-36.79,-40.623l24.527,0l0,-43.689l24.527,0l0,42.923l24.527,0l-36.79,41.389l-0.001,0z"/>
 </g>
</svg>