<?xml version="1.0" encoding="UTF-8"?>
<!DOCTYPE svg PUBLIC "-//W3C//DTD SVG 1.1//EN" "http://www.w3.org/Graphics/SVG/1.1/DTD/svg11.dtd">
<svg xmlns="http://www.w3.org/2000/svg" xmlns:xlink="http://www.w3.org/1999/xlink" version="1.1" width="458px" height="513px" viewBox="-0.5 -0.5 458 513"><defs/><g><g data-cell-id="0"><g data-cell-id="1"><g data-cell-id="sUuoDamrQ4gYwRhvdb2u-4"><g><ellipse cx="398" cy="220" rx="50" ry="50" fill="rgb(255, 255, 255)" stroke="rgb(0, 0, 0)" pointer-events="all"/></g></g><g data-cell-id="sUuoDamrQ4gYwRhvdb2u-5"><g><rect x="149.13" y="38.75" width="153" height="70" fill="rgb(255, 255, 255)" stroke="none" transform="rotate(-30,225.63,73.75)" pointer-events="all"/></g></g><g data-cell-id="sUuoDamrQ4gYwRhvdb2u-6"><g><rect x="172.34" y="54.75" width="153" height="50" fill="rgb(255, 255, 255)" stroke="none" transform="rotate(-55,248.84,79.75)" pointer-events="all"/></g></g><g data-cell-id="sUuoDamrQ4gYwRhvdb2u-7"><g><rect x="-18" y="254" width="153" height="40" fill="rgb(255, 255, 255)" stroke="none" transform="rotate(-60,58.5,274)" pointer-events="all"/></g></g><g data-cell-id="sUuoDamrQ4gYwRhvdb2u-8"><g><rect x="50" y="130" width="153" height="40" fill="rgb(255, 255, 255)" stroke="none" transform="rotate(-60,126.5,150)" pointer-events="all"/></g></g><g data-cell-id="sUuoDamrQ4gYwRhvdb2u-9"><g><rect x="40" y="214" width="153" height="40" fill="rgb(255, 255, 255)" stroke="none" transform="rotate(-60,116.5,234)" pointer-events="all"/></g></g><g data-cell-id="sUuoDamrQ4gYwRhvdb2u-10"><g><rect x="80" y="137" width="153" height="40" fill="rgb(255, 255, 255)" stroke="none" transform="rotate(-60,156.5,157)" pointer-events="all"/></g></g><g data-cell-id="sUuoDamrQ4gYwRhvdb2u-11"><g><rect x="100" y="160" width="153" height="40" fill="rgb(255, 255, 255)" stroke="none" transform="rotate(-60,176.5,180)" pointer-events="all"/></g></g><g data-cell-id="sUuoDamrQ4gYwRhvdb2u-12"><g><rect x="120" y="247" width="230" height="83" fill="rgb(255, 255, 255)" stroke="none" transform="rotate(65,235,288.5)" pointer-events="all"/></g></g><g data-cell-id="sUuoDamrQ4gYwRhvdb2u-13"><g><rect x="244" y="337" width="153" height="120" fill="rgb(255, 255, 255)" stroke="none" transform="rotate(-25,320.5,397)" pointer-events="all"/></g></g><g data-cell-id="sUuoDamrQ4gYwRhvdb2u-14"><g><rect x="270" y="457" width="67.87" height="35" fill="rgb(255, 255, 255)" stroke="none" transform="rotate(30,303.93,474.5)" pointer-events="all"/></g></g><g data-cell-id="sUuoDamrQ4gYwRhvdb2u-15"><g><rect x="274" y="437" width="67.87" height="35" fill="rgb(255, 255, 255)" stroke="none" transform="rotate(30,307.93,454.5)" pointer-events="all"/></g></g><g data-cell-id="sUuoDamrQ4gYwRhvdb2u-16"><g><rect x="110.5" y="67.85" width="67.87" height="197" fill="rgb(255, 255, 255)" stroke="none" transform="rotate(30,144.43,166.35)" pointer-events="all"/></g></g><g data-cell-id="sUuoDamrQ4gYwRhvdb2u-1"><g><g><svg viewBox="0 0 457 512" version="1.1" width="457" height="512" xmlns="http://www.w3.org/2000/svg" x="-0.5" y="-0.5" style="font-family: initial;"><path d="M365.9082336,248.5854492c34.2052002,2.3467102,61.6148682-19.7375793,68.6870728-50.1881409c-12.3980713-17.5686798-38.4007263-25.9117737-61.3349304-11.3552094C352.6391907,201.6428375,347.0135193,227.1673279,365.9082336,248.5854492z M273.3049316,10.7320032l-123.79422,68.3732529l28.6268005,15.0189133L301.8263245,25.960928L273.3049316,10.7320032z M155.8431091,198.7901917L276.7849426,474.769043l32.2889099,19.8341064L173.8461609,102.9160767l-32.211441-17.2691956L12.869606,328.6029968l23.4977913,13.1870422L147.365036,197.7696533C149.7934418,195.0509644,153.8549042,194.9626617,155.8431091,198.7901917z M371.8318176,264.4114685c-35.1719666-19.3618011-35.1719971-68.029129,0-87.3909454s79.3757019,4.9718628,79.3757019,43.6954803S407.0038147,283.7732849,371.8318176,264.4114685z M411.7871094,300.8228149c0,0,45.0594177,131.3694153,45.0594177,131.3694153L319.2476196,512c0,0-50.638855-31.4296875-50.638855-31.4296875l-90.680481-206.7342834L37.6093445,352.8883057c0,0-37.6093445-21.1496887-37.6093445-21.1496887L136.0769653,75.7921677c0,0,137.0354004-75.7921677,137.0354004-75.7921677L315.81604,22.9367638l43.2412109,126.422226C275.4977417,195.4290466,317.491333,312.2324219,411.7871094,300.8228149z"/></svg></g></g></g></g></g></g></svg>