<svg width="269.3" height="269.3" xmlns="http://www.w3.org/2000/svg">
 <g>
  <title>Layer 1</title>
  <ellipse stroke="#ffffff" ry="95.79141" rx="96.7815" id="svg_27" cy="145.79356" cx="141.3331" stroke-width="8.2" fill="#ffffff"/>
  <circle id="lower_circle" cx="153.6018" cy="157" r="100.2" fill="#fdcc80"/>
  <circle id="inner_circle" cx="141.2018" cy="144.2" r="36.8" fill="#fff"/>
  <path id="upper_frosting" d="m100.5018,235.5c-6.6,0.3 -31.9,-13.4 -42.4,-49.5c-1.9,-6.6 -4.5,-16.8 -4.5,-29.6c0,-55 44.6,-99.6 99.6,-99.6c13.1,0 23.5,2.7 29.6,4.5c34.4,10.4 48,34.1 44.9,40.5s-10.6,-3.4 -22.9,-2.5c-1.4,0.1 -4.2,4 -4.2,6.2c0,7.2 13.5,12.7 14.6,15.9c1.7,5 3.4,6.2 2.3,9.5c-1.5,4.8 -2.9,3.6 -5.2,5.9c-0.9,0.9 -5.6,0.7 -16.6,-1.7c-5.9,-1.3 -18,-11.2 -18,-11.4c0,-0.4 -16.2,-13.3 -30.2,-14.8c-6.6,-0.7 -28.1,-2.8 -39.2,19.2c-0.5,1.1 -4.4,20 -4.2,22.5c0.9,11.9 7,24.7 12.1,27.5c11.7,6.4 12.9,14.7 12.8,14.4c-0.1,-0.4 7.8,14.7 8.2,17.3c0.3,2.1 -0.8,7.4 -3.7,8.7c-3.5,1.5 -7.7,-1.7 -8.4,-2.1c-0.8,-0.5 -10.7,-16.3 -19.5,-13.1c-0.8,0.3 -6,3.7 -7.6,5c-0.3,0.2 4.8,15.4 5.6,18.5c0.5,1.8 -2.3,8.7 -3.1,8.7z" opacity="0.5" fill="#fa7471"/>
  <g id="sprinkles">
   <path class="st4" d="m126.9018,60.7l-0.2,0c-2.3,0.4 -3.8,2.6 -3.4,4.9c0.4,2.3 2.6,3.8 4.9,3.4c0.8,-0.1 1.5,-0.5 2.1,-1c1,-0.9 1.6,-2.3 1.4,-3.7c-0.3,-2.3 -2.5,-3.9 -4.8,-3.6z" fill="#fa7471" id="svg_1"/>
   <path class="st4" d="m173.5018,65c-2.3,-0.1 -4.3,1.7 -4.5,4l-0.5,8.4c-0.1,2.3 1.7,4.3 4,4.5c1.2,0.1 2.2,-0.3 3.1,-1.1c0.8,-0.7 1.3,-1.7 1.4,-2.9l0.5,-8.4c0.1,-2.4 -1.7,-4.4 -4,-4.5z" fill="#fa7471" id="svg_2"/>
   <path class="st4" d="m86.2018,177.1c-2.3,-0.1 -4.3,1.7 -4.5,4l-0.5,8.4c-0.1,2.3 1.7,4.3 4,4.5c1.2,0.1 2.2,-0.3 3.1,-1.1c0.8,-0.7 1.3,-1.7 1.4,-2.9l0.5,-8.4c0.1,-2.4 -1.7,-4.4 -4,-4.5z" fill="#fa7471" id="svg_3"/>
   <path class="st5" d="m57.2018,131.7c-2.3,-0.1 -4.3,1.7 -4.5,4l-0.5,8.4c-0.1,2.3 1.7,4.3 4,4.5c1.2,0.1 2.2,-0.3 3.1,-1.1s1.3,-1.7 1.4,-2.9l0.5,-8.4c0.1,-2.3 -1.7,-4.3 -4,-4.5z" fill="#a575b7" id="svg_4"/>
   <path class="st5" d="m149.0018,68.2l-6.2,5.6c-1.7,1.6 -1.9,4.2 -0.3,6c1.6,1.7 4.2,1.9 6,0.3l6.2,-5.6c1.7,-1.6 1.9,-4.2 0.3,-6s-4.3,-1.9 -6,-0.3z" fill="#a575b7" id="svg_5"/>
   <path class="st4" d="m85.6018,106.7l-8.3,-0.5c-2.3,-0.1 -4.3,1.7 -4.5,4s1.7,4.3 4,4.5l8.3,0.5c1.2,0.1 2.2,-0.3 3.1,-1.1c0.8,-0.7 1.3,-1.7 1.4,-2.9c0.1,-2.4 -1.7,-4.4 -4,-4.5z" fill="#fa7471" id="svg_6"/>
   <path class="st5" d="m180.9018,94.9l-8.3,-0.5c-2.3,-0.1 -4.3,1.7 -4.5,4s1.7,4.3 4,4.5l8.3,0.5c1.2,0.1 2.2,-0.3 3.1,-1.1s1.3,-1.7 1.4,-2.9c0.1,-2.4 -1.6,-4.4 -4,-4.5z" fill="#a575b7" id="svg_7"/>
   <path class="st4" d="m124.2018,87.7l-7.1,-4.4c-2,-1.2 -4.6,-0.6 -5.8,1.4c-1.2,2 -0.6,4.6 1.4,5.8l7.1,4.4c1,0.6 2.1,0.8 3.2,0.5c1.1,-0.2 2,-0.9 2.6,-1.9c1.1,-2 0.5,-4.6 -1.4,-5.8z" fill="#fa7471" id="svg_8"/>
   <path class="st5" d="m80.0018,135.7c-2.1,1.1 -2.8,3.7 -1.7,5.7l4,7.4c1.1,2.1 3.7,2.8 5.7,1.7c1.1,-0.6 1.8,-1.6 2.1,-2.7c0.3,-1 0.1,-2.1 -0.4,-3l-4,-7.4c-1.1,-2 -3.7,-2.8 -5.7,-1.7z" fill="#a575b7" id="svg_9"/>
  </g>
  <g class="hair" id="svg_10">
   <path class="st5" d="m224.3018,46.7c-2.2,3.1 -4.6,6 -7.2,8.7c-1.8,1.9 -1.7,4.9 0.1,6.7c1.9,1.8 4.9,1.7 6.7,-0.1c2.9,-3 5.6,-6.3 8,-9.7c1.5,-2.1 1,-5.1 -1.1,-6.6s-5,-1.1 -6.5,1z" fill="#a575b7" id="svg_11"/>
   <path class="st5" d="m136.5018,16.6c0.2,3.7 0.2,7.5 -0.2,11.2c-0.2,2.6 1.7,4.9 4.3,5.1c2.6,0.2 4.9,-1.7 5.1,-4.3c0.4,-4.2 0.4,-8.4 0.2,-12.6c-0.2,-2.6 -2.4,-4.6 -5,-4.4c-2.5,0.1 -4.5,2.4 -4.4,5z" fill="#a575b7" id="svg_12"/>
   <path class="st5" d="m51.1018,54.3c3.1,2.2 6,4.5 8.7,7.1c1.9,1.8 4.9,1.7 6.7,-0.2s1.7,-4.9 -0.2,-6.7c-3,-2.9 -6.3,-5.5 -9.8,-8c-2.1,-1.5 -5.1,-1 -6.6,1.1s-1,5.2 1.2,6.7z" fill="#a575b7" id="svg_13"/>
   <path class="st5" d="m14.4018,141.6c3.7,-0.2 7.5,-0.1 11.2,0.3c2.6,0.3 4.9,-1.6 5.2,-4.2s-1.6,-4.9 -4.2,-5.2c-4.2,-0.4 -8.4,-0.5 -12.6,-0.3c-2.6,0.1 -4.6,2.3 -4.5,4.9c0.1,2.7 2.3,4.7 4.9,4.5z" fill="#a575b7" id="svg_14"/>
   <path class="st5" d="m52.0018,232.2c2.2,-3 4.6,-5.9 7.2,-8.6c1.8,-1.9 1.8,-4.9 -0.1,-6.7c-1.9,-1.8 -4.9,-1.8 -6.7,0.1c-2.9,3 -5.6,6.3 -8.1,9.7c-1.5,2.1 -1,5.1 1.1,6.6c2.1,1.4 5,1 6.6,-1.1z" fill="#a575b7" id="svg_15"/>
  </g>
  <circle is="upper_circle" class="st6" cx="140.9018" cy="145" r="99.4" stroke-width="8.2" stroke="#8a3d9b" fill="none" stroke-miterlimit="10" id="svg_16"/>
  <g id="side_swirl">
   <path class="st7" d="m184.3018,135.6c4.2,-4.4 9.6,0.5 13.6,2.9c4,2.3 7.9,3.4 12.4,2.3c8.7,-1.9 13.9,-9.9 10.2,-18.5c-1.9,-4.4 -5.5,-7.4 -9.5,-9.8c-2.3,-1.4 -5.5,-2.5 -7,-4.9c-2.6,-4.1 2.6,-5.6 5.7,-4.4c4.6,1.7 8.3,3.1 13.2,1.4c3.5,-1.2 7.6,-1.6 8.2,-6.1c0.7,-5.3 -7.4,-7.6 -8.1,-2.2c-0.1,0.2 -0.1,0.5 -0.2,0.7c0.8,-0.6 1.7,-1.3 2.5,-1.9c-1.6,0.6 -3.3,1 -4.9,1.5c-3.2,1 -5.2,-0.1 -8,-1.3c-4.2,-1.6 -8.7,-1.6 -12.6,0.9c-8.9,5.9 -4.6,16.6 2.8,21.3c3.9,2.5 10.3,4.7 10.5,10.2c0.2,6.1 -7.6,5.7 -11.2,3.6c-7.7,-4.5 -16.2,-9.3 -23.7,-1.6c-3.6,3.9 2.3,9.8 6.1,5.9z" fill="#8a3d9b" id="svg_17"/>
   <path class="st7" d="m124.3018,186.1c-0.9,3.8 -0.5,7.5 1.3,11c1.8,3.6 7.8,8 7.6,12.1c-0.1,3.1 -2.8,4.1 -5.5,3.5s-4.2,-2.3 -5.7,-4.5c-2.3,-3.3 -4.5,-6.6 -8.2,-8.5c-6.7,-3.5 -15.8,-3 -19.4,4.4c-1.8,3.7 -2.1,8.1 -0.9,12.1c0.7,2.3 2,4.3 3.3,6.3c0.7,1.2 1.6,2.2 1.3,3.7c-0.4,1.7 -1.3,1.6 -3.1,1.8c-5.3,0.6 -5.4,9 0,8.4c4,-0.5 8.2,-1.3 10.5,-4.9c2.3,-3.7 1.4,-8.1 -0.6,-11.7c-1.4,-2.6 -3.5,-4.9 -3.7,-7.9c-0.3,-4.2 2.2,-6.4 6.2,-5.5c5.8,1.3 7.2,7.2 11.1,11c5.7,5.5 17.4,5.9 21.4,-1.7c2.1,-3.9 2.2,-8.7 0.1,-12.6c-2.5,-4.6 -9,-8.8 -7.6,-14.6c1.2,-5.4 -6.9,-7.7 -8.1,-2.4z" fill="#8a3d9b" id="svg_18"/>
   <path class="st7" d="m130.0018,110c13.4,-2.9 27.6,-0.7 37.5,9.4c7.8,8 11.8,19.6 10.2,30.7c-3.9,27.4 -37.5,39.4 -58.4,22c-12.2,-10.2 -14.2,-25.9 -10.4,-40.6c1.4,-5.6 -7.2,-8 -8.7,-2.4c-4.2,16.3 -2.4,33.7 9.6,46.4c9.3,9.9 23.6,15.2 37.1,13.8c17.5,-1.8 32.6,-13.9 38.1,-30.7c4.6,-13.9 1.4,-29.7 -7.4,-41.3c-11.9,-15.7 -31.3,-20 -49.9,-16c-5.7,1.2 -3.3,9.9 2.3,8.7z" fill="#8a3d9b" id="svg_19"/>
   <path class="st5" d="m91.1018,75.2l-8,2.4c-2.2,0.7 -3.5,3 -2.9,5.2c0.7,2.2 3,3.5 5.2,2.9l8,-2.4c1.1,-0.3 2,-1.1 2.5,-2s0.7,-2.1 0.3,-3.2c-0.5,-2.2 -2.9,-3.5 -5.1,-2.9z" fill="#a575b7" id="svg_20"/>
   <path class="st4" d="m73.6018,160.7l-0.2,0c-3.2,0.6 -4.9,4.7 -1.8,7.7c2.1,1.2 4.1,0.8 5.4,-0.4c1,-0.9 1.6,-2.3 1.4,-3.7c-0.4,-2.3 -2.5,-3.9 -4.8,-3.6z" fill="#fa7471" id="svg_21"/>
   <path class="st7" d="m116.1018,108.3c-3.2,1.7 -6.1,4.3 -8.3,7.1c-1.4,1.8 -1.1,4.9 0.8,6.3c2,1.5 4.7,1.1 6.3,-0.8c0.4,-0.5 0.8,-0.9 1.2,-1.4l0.1,-0.1c0.2,-0.3 0.6,-0.5 0.8,-0.8c0.6,-0.4 1,-0.9 1.6,-1.3c0.3,-0.3 0.6,-0.4 0.9,-0.6c0.8,-0.5 -0.6,0.3 0.1,-0.1c2,-1.1 3.5,-3.6 2.3,-6c-0.9,-2 -3.5,-3.5 -5.8,-2.3z" fill="#8a3d9b" id="svg_22"/>
  </g>
 </g>

</svg>