<svg width="148" height="148" xmlns="http://www.w3.org/2000/svg" xml:space="preserve" enable-background="new 0 0 148 147.578125" version="1.1">
 <g>
  <title>Layer 1</title>
  <g id="XMLID_12_">
   <path d="m20.12023,77.75953l-12,0c-3.31371,0 -6,-2.68629 -6,-6l0,-24c0,-6.62742 5.37258,-12 12,-12l6,0c3.31371,0 6,2.68629 6,6l0,30c0,3.31371 -2.68629,6 -6,6z" fill="#52B8CC" id="XMLID_2_"/>
   <path d="m50.12023,111.75953l-12,0c-3.31371,0 -6,-2.68629 -6,-6l0,-30c0,-3.31371 2.68629,-6 6,-6l12,0c3.31371,0 6,2.68629 6,6l0,30c0,3.31371 -2.68629,6 -6,6z" fill="#DBDBDB" id="XMLID_3_"/>
   <path d="m80.12023,77.75953l-12,0c-3.31371,0 -6,-2.68629 -6,-6l0,-30c0,-3.31371 2.68629,-6 6,-6l12,0c3.31371,0 6,2.68629 6,6l0,30c0,3.31371 -2.68629,6 -6,6z" fill="#52B8CC" id="XMLID_4_"/>
   <path d="m110.12023,111.75953l-12,0c-3.31371,0 -6,-2.68629 -6,-6l0,-30c0,-3.31371 2.68629,-6 6,-6l12,0c3.31371,0 6,2.68629 6,6l0,30c0,3.31371 -2.68629,6 -6,6z" fill="#DBDBDB" id="XMLID_5_"/>
   <path d="m140.12023,77.75953l-12,0c-3.31371,0 -6,-2.68629 -6,-6l0,-30c0,-3.31371 2.68629,-6 6,-6l6,0c6.62741,0 12,5.37258 12,12l0,24c0,3.31371 -2.68629,6 -6,6z" fill="#52B8CC" id="XMLID_6_"/>
   <path d="m20.12023,111.75953l-12,0c-3.31371,0 -6,-2.68629 -6,-6l0,-16c0,-3.31371 2.68629,-6 6,-6l12,0c3.31371,0 6,2.68629 6,6l0,16c0,3.31371 -2.68629,6 -6,6z" fill="#52B8CC" id="XMLID_10_"/>
   <path d="m50.12023,63.75953l-12,0c-3.31371,0 -6,-2.68629 -6,-6l0,-16c0,-3.31371 2.68629,-6 6,-6l12,0c3.31371,0 6,2.68629 6,6l0,16c0,3.31371 -2.68629,6 -6,6z" fill="#52B8CC" id="XMLID_9_"/>
   <path d="m80.12023,111.75953l-12,0c-3.31371,0 -6,-2.68629 -6,-6l0,-16c0,-3.31371 2.68629,-6 6,-6l12,0c3.31371,0 6,2.68629 6,6l0,16c0,3.31371 -2.68629,6 -6,6z" fill="#52B8CC" id="XMLID_8_"/>
   <path d="m110.12023,63.75953l-12,0c-3.31371,0 -6,-2.68629 -6,-6l0,-16c0,-3.31371 2.68629,-6 6,-6l12,0c3.31371,0 6,2.68629 6,6l0,16c0,3.31371 -2.68629,6 -6,6z" fill="#52B8CC" id="XMLID_7_"/>
   <path d="m140.12023,111.75953l-12,0c-3.31371,0 -6,-2.68629 -6,-6l0,-16c0,-3.31371 2.68629,-6 6,-6l12,0c3.31371,0 6,2.68629 6,6l0,16c0,3.31371 -2.68629,6 -6,6z" fill="#52B8CC" id="XMLID_11_"/>
  </g>
 </g>

</svg>