<svg width="550" height="500" xmlns="http://www.w3.org/2000/svg" role="img" aria-label="JSON">
 <g id="Layer_1">
  <title>Layer 1</title>
  <g stroke="null">
   <path stroke="null" fill="#ff6c37" class="C" d="m466.53247,108.19968a241.99833,232 0 1 0 -43.56726,325.38001c105.72302,-78.329 125.23414,-223.98875 43.5597,-325.38001l0.00756,0z"/>
   <path stroke="null" fill="#fff" class="D" d="m356.61986,165.82268l-102.04011,98.6l-28.83561,-28.42c100.42931,-96.28 110.51005,-87.58 130.88329,-70.18l-0.00756,0z"/>
   <path stroke="null" fill="#ff6c37" class="C" d="m254.57975,267.11969a3.62997,3.48 0 0 1 -2.41998,-0.96425l-29.0398,-27.84a3.62997,3.48 0 0 1 0,-4.83575c99.01513,-94.92425 112.52922,-90.48 135.91988,-70.18a3.22917,3.09575 0 0 1 1.20999,2.51575c0.15125,0.9425 -0.22687,1.90675 -1.00581,2.51575l-102.04011,97.8315a3.8266,3.6685 0 0 1 -2.62417,0.96425l0,-0.00725zm-23.79902,-31.12425l23.79902,22.81575l96.79933,-92.8a21.77985,20.88 0 0 0 -28.63899,-4.64c-17.54488,7.54 -45.7755,30.54425 -91.95937,74.62425z"/>
   <path stroke="null" fill="#fff" class="D" d="m283.82373,291.68269l-27.82981,-27.26l102.04011,-96.6715c27.429,25.71575 -13.30991,68.63575 -74.2103,123.92425l0,0.00725z"/>
   <path stroke="null" fill="#ff6c37" class="C" d="m283.82373,295.16269a4.23497,4.06 0 0 1 -2.41998,-0.96425l-28.4348,-26.68a4.23497,4.06 0 0 1 0,-3.09575a3.90979,3.74825 0 0 1 0,-2.51575l102.04011,-97.82425a3.8266,3.6685 0 0 1 5.24078,0a31.27828,29.986 0 0 1 10.08074,23.00425c0,26.1 -31.05897,58.96425 -83.89023,106.91575a4.23497,4.06 0 0 1 -2.62417,1.16l0.00756,0zm-22.58903,-30.74l22.78566,21.837c40.33053,-36.54 78.85364,-74.24 79.05027,-99.76a22.98984,22.04 0 0 0 -5.24078,-14.88425l-96.59515,92.80725z"/>
   <path stroke="null" fill="#fff" class="D" d="m226.54575,236.58269l20.16905,19.33575a1.20999,1.16 0 0 1 0,1.74l-42.55389,8.7a4.03078,3.86425 0 0 1 -3.62997,-6.57575l24.80483,-23.58425s0.80918,0 1.20999,0.38425z"/>
   <path stroke="null" fill="#ff6c37" class="C" d="m203.1551,270.22269a7.86495,7.54 0 0 1 -6.65495,-3.67575a7.66832,7.3515 0 0 1 1.41418,-8.7l24.60064,-23.78a4.83997,4.64 0 0 1 6.45077,0l20.16905,19.33575c1.19487,1.0875 1.66374,2.73325 1.20999,4.25575s-1.78474,2.73325 -3.42579,3.09575l-42.55389,8.7l-1.20999,0.7685zm22.58903,-29.38425l-22.78566,21.84425l37.71393,-7.73575l-14.92827,-14.1085zm1.81499,-1.74z"/>
   <path stroke="null" fill="#fff" class="D" d="m410.87286,111.49118c-14.59552,-13.4995 -37.52487,-14.065 -52.83126,-1.32675s-17.923,34.60425 -6.00458,50.33675s34.38645,20.1405 51.78008,10.15l-27.429,-26.29575l34.48476,-32.86425z"/>
   <path stroke="null" fill="#ff6c37" class="C" d="m383.64805,179.53968a42.72783,40.9625 0 0 1 -38.99198,-25.433a42.85639,41.08575 0 0 1 9.07494,-44.3555a43.18158,41.3975 0 0 1 60.49958,0c0.77137,0.6235 1.20999,1.54425 1.20999,2.51575a3.47873,3.335 0 0 1 -1.20999,2.51575l-32.66977,29.58l24.80483,23.39575a3.4031,3.2625 0 0 1 1.00581,2.9a3.62997,3.48 0 0 1 -1.6108,2.51575a43.8622,42.05 0 0 1 -22.18066,6.38l0.06806,-0.0145zm0,-75.01575c-14.36865,0.0725 -27.22481,8.35925 -32.61684,21.025s-2.4578,27.2455 7.61539,36.975a35.27882,33.82125 0 0 0 39.12054,7.15575l-23.79902,-22.81575a3.22917,3.09575 0 0 1 0,-4.83575l31.45978,-30.35575a36.18631,34.69125 0 0 0 -21.77985,-7.15575l0,0.00725z"/>
   <path stroke="null" fill="#fff" class="D" d="m411.47785,112.07118l-34.48476,32.86425l27.429,26.29575a41.74471,40.02 0 0 0 7.66076,-5.41575a40.33053,38.66425 0 0 0 -0.605,-53.74425z"/>
   <path stroke="null" fill="#ff6c37" class="C" d="m403.80953,174.13118a3.02498,2.9 0 0 1 -2.41998,-0.96425l-27.429,-26.29575a3.22917,3.09575 0 0 1 0,-4.83575l34.28058,-32.28425a3.62997,3.48 0 0 1 6.04996,0a42.34971,40.6 0 0 1 0,58a36.90475,35.38 0 0 1 -8.06913,6.18425a3.25185,3.1175 0 0 1 -2.41998,0.19575l0.00756,0zm-22.18066,-29.7685l22.78566,21.84425a38.71973,37.12 0 0 0 4.43916,-3.48a35.69475,34.22 0 0 0 10.48912,-24.16425a34.63601,33.205 0 0 0 -8.67413,-22.04l-29.0398,27.84z"/>
   <path stroke="null" fill="#fff" class="D" d="m360.85483,169.88268a14.73165,14.123 0 0 0 -20.16905,0l-91.34681,87.377l15.1249,14.69575l96.59515,-81.2a14.95096,14.33325 0 0 0 -0.20419,-20.88l0,0.00725z"/>
   <path stroke="null" fill="#ff6c37" class="C" d="m263.65469,275.44269a3.62997,3.48 0 0 1 -2.41998,-0.96425l-15.32908,-14.69575a3.62997,3.48 0 0 1 0,-4.83575l91.35437,-87.19575a18.55825,17.7915 0 0 1 31.66397,13.14425a18.98174,18.1975 0 0 1 -6.25414,12.76l-96.59515,81.2a3.44091,3.29875 0 0 1 -2.41998,0.58l0,0.00725zm-10.68574,-18.183l10.08074,9.86l94.78016,-79.07575c2.34436,-1.9575 3.74341,-4.756 3.83416,-7.73575s-1.13437,-5.89425 -3.42579,-7.92425a11.29073,10.82425 0 0 0 -15.93408,0l-89.3352,84.87575z"/>
   <path stroke="null" fill="#fff" class="D" d="m178.55446,356.83119a2.04186,1.9575 0 0 0 0,2.32l4.03078,16.82a5.20296,4.988 0 0 1 -2.51073,5.075a4.91559,4.7125 0 0 1 -5.76259,-0.55825l-27.62562,-25.52l86.11359,-83.20825l29.84898,0l20.16905,19.33575a457.8306,438.91501 0 0 1 -104.26347,65.73575z"/>
   <path stroke="null" fill="#ff6c37" class="C" d="m176.73947,385.25119c-2.28386,-0.0435 -4.53747,-0.9425 -6.04996,-2.51575l-26.41563,-25.32425a3.22917,3.09575 0 0 1 0,-4.83575l86.71103,-83.32425a3.4031,3.2625 0 0 1 1.81499,-0.96425l30.04561,0a3.62997,3.48 0 0 1 2.41998,0l20.16905,19.33575a3.2216,3.0885 0 0 1 1.00581,2.70425a3.25185,3.1175 0 0 1 -1.20999,2.51575l-1.6108,1.35575a494.05472,473.64251 0 0 1 -103.45429,63.60425l3.83416,15.66a8.69682,8.3375 0 0 1 -8.26576,10.24425l1.00581,1.54425zm-24.60064,-30.35575l23.79146,23.00425a1.20999,1.16 0 0 0 1.6108,0a1.20999,1.16 0 0 0 0,-1.35575l-4.03078,-16.82a5.62646,5.394 0 0 1 3.02498,-6.18425a495.79408,475.31001 0 0 0 100.83012,-62.25575l-16.53907,-15.85575l-27.02063,0l-81.66687,79.46725zm29.0398,3.48z"/>
   <path stroke="null" fill="#fff" class="D" d="m125.91982,374.81119l20.16905,-19.33575l31.05897,29.77575l-49.40547,-3.28425a4.03835,3.8715 0 0 1 -1.81499,-7.1485l-0.00756,-0.00725z"/>
   <path stroke="null" fill="#ff6c37" class="C" d="m177.74528,388.15119l-49.20885,-3.28425c-2.9191,-0.261 -5.42984,-2.175 -6.45833,-4.73425s-0.40081,-5.597 1.61836,-7.6415l20.16905,-19.33575a3.62997,3.48 0 0 1 5.04415,0l30.85479,29.58a3.41823,3.277 0 0 1 0,3.86425a3.83416,3.67575 0 0 1 -2.01917,1.54425l0,0.00725zm-49.20885,-10.82425l40.33053,2.51575l-22.18066,-19.91575l-18.14987,17.4z"/>
   <path stroke="null" fill="#fff" class="D" d="m265.46967,274.09419l-40.73891,5.99575l23.59484,-22.42425l17.14407,16.4285z"/>
   <path stroke="null" fill="#ff6c37" class="C" d="m224.73077,283.75119a3.44848,3.306 0 0 1 -3.22917,-1.93575a3.4031,3.2625 0 0 1 0,-3.86425l23.39065,-22.62a3.8266,3.6685 0 0 1 5.24078,0l17.15163,16.4285a3.4031,3.2625 0 0 1 0,3.48a3.55435,3.4075 0 0 1 -2.82079,2.51575l-40.33053,5.99575l0.59743,0zm23.59484,-21.07575l-13.10572,12.56425l22.58903,-3.28425l-9.48331,-9.28z"/>
   <path stroke="null" fill="#fff" class="D" d="m265.46967,274.07969l-28.4348,3.48a3.62997,3.48 0 0 1 -3.42579,-5.8l14.72409,-14.11575l17.13651,16.43575z"/>
   <path stroke="null" fill="#ff6c37" class="C" d="m236.22569,281.24269a7.46414,7.15575 0 0 1 -6.45077,-3.67575a7.25995,6.96 0 0 1 1.20999,-8.31575l14.72409,-14.11575a3.8266,3.6685 0 0 1 5.24078,0l17.14407,16.43575a3.62997,3.48 0 0 1 -2.2158,5.99575l-28.23062,3.48l-1.42174,0.19575zm0,-7.15575l21.37904,-2.51575l-9.47575,-9.08425l-12.09992,11.6l0.19662,0zm175.44879,-139.78a3.02498,2.9 0 0 0 -3.83416,-1.16a2.79811,2.6825 0 0 0 -1.40662,1.595a2.85104,2.73325 0 0 0 0.19662,2.08075c1.41418,2.84925 1.02093,6.2205 -1.00581,8.7a2.55611,2.4505 0 0 0 -0.75624,1.83425a2.87373,2.755 0 0 0 0.75624,1.83425a2.19311,2.1025 0 0 0 1.6108,0a2.64686,2.5375 0 0 0 2.62417,-0.77575a13.9149,13.34 0 0 0 1.81499,-14.11575l0,0.00725z"/>
  </g>
 </g>

</svg>