<svg width="250" height="210" xmlns="http://www.w3.org/2000/svg" role="img" aria-label="JSON">
 <g id="Layer_1">
  <title>Layer 1</title>
  <g id="svg_2" stroke="null">
   <path id="svg_3" d="m41.18567,150.81265l83.81218,45.81265l83.81648,-45.81265l0,-91.62326l-83.81648,-45.81129l-83.81218,45.81129l0,91.62326zm83.81218,54.48535l-91.74783,-50.14968l0,-100.29528l91.74783,-50.15103l91.75213,50.15103l0,100.29528l-91.75213,50.14968z" fill="#A1070C" stroke="null"/>
   <path id="svg_4" d="m40.11621,58.60375l84.88379,-46.39693l84.88379,46.39693l0,92.79455l-84.88379,46.39693l-84.88379,-46.39693l0,-92.79455" fill="url(#svg_1)" stroke="null"/>
   <path id="svg_5" d="m163.945,71.04955c0,3.64552 -0.7598,7.26661 -2.27941,10.86328a42.38061,40.12314 0 0 1 -6.11714,10.00008a44.75607,42.37207 0 0 1 -8.85244,8.05788c-3.34457,2.30254 -6.81459,3.95633 -10.41147,4.96407l-1.59559,-2.51766a24.4055,23.1055 0 0 0 5.85121,-3.88507a26.62398,25.20581 0 0 0 4.55883,-5.3597a28.07406,26.57865 0 0 0 2.92596,-6.33148a25.63122,24.26593 0 0 0 1.02574,-6.79837c0,-2.63778 -0.40499,-5.13169 -1.21569,-7.48173c-0.80998,-2.35072 -2.00058,-4.40082 -3.57108,-6.15165c-1.5705,-1.75083 -3.50872,-3.1291 -5.81322,-4.13616c-2.30522,-1.00774 -4.95307,-1.51128 -7.94139,-1.51128c-3.64778,0 -6.99092,0.67183 -10.03085,2.01481c-3.03922,1.34298 -5.77523,3.15353 -8.20732,5.43164c-2.43137,2.27811 -4.54664,4.89214 -6.34508,7.8414a57.14662,54.10261 0 0 0 -4.48285,9.28074a65.78904,62.28468 0 0 0 -2.69802,9.82024c-0.60784,3.30961 -0.91177,6.42649 -0.91177,9.35268c0,2.97369 0.32973,6.04307 0.98775,9.20881a57.81468,54.73508 0 0 0 2.88797,9.35268a50.76211,48.05818 0 0 0 4.71151,8.7046c1.87442,2.73414 4.03987,5.13237 6.49705,7.19468a30.26244,28.65046 0 0 0 8.20732,4.9281c3.01413,1.22286 6.29348,1.8343 9.84019,1.8343c2.43209,0 4.80039,-0.31216 7.10489,-0.93513a35.03702,33.17072 0 0 0 6.64972,-2.51766a37.52574,35.52687 0 0 0 6.04116,-3.74121a46.50936,44.03196 0 0 0 5.28136,-4.67634l2.50736,2.30186c-2.22924,2.78232 -4.87565,5.45607 -7.94067,8.02123a64.88014,61.42419 0 0 1 -9.91688,6.83501a54.16116,51.27618 0 0 1 -11.13257,4.74827c-3.87572,1.17536 -7.71273,1.76236 -11.51247,1.76236c-3.69867,0 -7.18159,-0.61075 -10.44875,-1.8343a34.48222,32.64547 0 0 1 -9.00512,-4.96407c-2.7353,-2.08606 -5.18029,-4.53247 -7.33283,-7.33787a52.5068,49.70993 0 0 1 -5.47131,-8.95772a53.73323,50.87105 0 0 1 -3.41984,-9.7836c-0.78489,-3.35711 -1.1777,-6.64297 -1.1777,-9.85621c0,-4.65259 0.82288,-9.43683 2.46936,-14.35272c1.64648,-4.91589 3.91371,-9.68791 6.80168,-14.31675c2.88726,-4.62816 6.29419,-9.00523 10.22009,-13.12917c3.92661,-4.12462 8.15715,-7.72264 12.69089,-10.79134c4.53374,-3.07006 9.27105,-5.50357 14.20978,-7.3019c4.93945,-1.79901 9.86671,-2.69817 14.78035,-2.69817c3.03922,0 5.87702,0.41938 8.51124,1.25883c2.63423,0.83945 4.91364,2.0501 6.83896,3.63331c1.92532,1.58253 3.44493,3.54916 4.55954,5.8992c1.11462,2.35005 1.67157,5.03533 1.67157,8.0572l-0.00002,0z" fill="#A1070C" stroke="null"/>
  </g>
 </g>
 <defs>
  <linearGradient x1="50%" y1="45.227%" x2="50%" y2="100%" id="svg_1">
   <stop stop-color="#F7F6F3" offset="0%"/>
   <stop stop-color="#FEF6D5" offset="100%"/>
  </linearGradient>
 </defs>
</svg>